PathFileType	4	(X/Y/Z)	/Users/niels/Desktop/University/Third Semester/Perception and Action/Exam/Gymnastics Motion Tracking/Code for Gym Tracking/Analyzed Data/Webcam_Backflip/id11_2_trajectory_Sports2D/id11_2_trajectory_Sports2D_px_person00.trc
DataRate	CameraRate	NumFrames	NumMarkers	Units	OrigDataRate	OrigDataStartFrame	OrigNumFrames
29.714285714285715	29.714285714285715	9	22	m	29.714285714285715	0	105
Frame#	Time	Hip			RHip			RKnee			RAnkle			RBigToe			RSmallToe			RHeel			LHip			LKnee			LAnkle			LBigToe			LSmallToe			LHeel			Neck			Head			Nose			RShoulder			RElbow			RWrist			LShoulder			LElbow			LWrist		
		X1	Y1	Z1	X2	Y2	Z2	X3	Y3	Z3	X4	Y4	Z4	X5	Y5	Z5	X6	Y6	Z6	X7	Y7	Z7	X8	Y8	Z8	X9	Y9	Z9	X10	Y10	Z10	X11	Y11	Z11	X12	Y12	Z12	X13	Y13	Z13	X14	Y14	Z14	X15	Y15	Z15	X16	Y16	Z16	X17	Y17	Z17	X18	Y18	Z18	X19	Y19	Z19	X20	Y20	Z20	X21	Y21	Z21	X22	Y22	Z22
0	0.0	0.8804415983264899	-0.6263623840062967	0.0	0.8783233962920826	-0.6284876643728433	0.0	0.9506885981243808	-0.8540938333268381	0.0	0.8889489400839906	-1.0562714373145337	0.0	0.9676877385717748	-1.069040743554664	0.0	0.9506586794475522	-1.0796856200083491	0.0	0.8655331924032491	-1.0754257368724995	0.0	0.8847004357623665	-0.6284909922782007	0.0	0.9293979698459464	-0.8455762668587966	0.0	0.888945866270619	-1.0392470877260833	0.0	0.9953488469109147	-1.0520134356619557	0.0	0.9889682046365201	-1.0413701907475599	0.0	0.8697924067590874	-1.0477564397006833	0.0	0.9570500845755598	-0.3262764190365159	0.0	1.0549406763573939	-0.20284732792555313	0.0	1.046423295390766	-0.30286389383779716	0.0	0.9293839352369446	-0.3709682864981897	0.0	0.9506445654448341	-0.5561458700006837	0.0	1.0187467056973323	-0.7072701860608281	0.0	0.9293727357542998	-0.35820618740020793	0.0	0.9400036097217953	-0.5391134194600489	0.0	0.9953289778596153	-0.6838436021530783	0.0
1	0.03365384615384615	0.877906553389565	-0.622731755426361	0.0	0.8761076019972521	-0.6254723498769926	0.0	0.9470598522830519	-0.8463232787363496	0.0	0.8850371043361471	-1.0497870190784724	0.0	0.9656381889194611	-1.0624012307101158	0.0	0.9471995590853118	-1.0717316545833466	0.0	0.86194988272847	-1.0699267068496499	0.0	0.8852010291715623	-0.6247100001910734	0.0	0.9349876682273853	-0.8380187685564182	0.0	0.8941541381051096	-1.0257925421895493	0.0	0.9952523233449693	-1.037958698981133	0.0	0.9870386632600993	-1.0263708383110284	0.0	0.8765799474991164	-1.0377993269891734	0.0	0.9588768871719575	-0.3295303444016895	0.0	1.0576646834898455	-0.20956891329722416	0.0	1.0476781784905487	-0.30907347156484366	0.0	0.9322695037560054	-0.3723036465654851	0.0	0.9588579899063956	-0.5524347127330346	0.0	1.034666038735026	-0.6974766652158069	0.0	0.9312622211142533	-0.360145204299083	0.0	0.9501377070293481	-0.5338655282586483	0.0	1.0154945633773182	-0.6733578628407478	0.0
2	0.0673076923076923	0.8751858240046969	-0.6191655465171392	0.0	0.8737643872797334	-0.6222066801104403	0.0	0.9436067260118591	-0.8389226297141	0.0	0.8808140084168828	-1.0433070929279227	0.0	0.9636460393991146	-1.056564899207656	0.0	0.9438678930892158	-1.065087465734732	0.0	0.8577907412358835	-1.064707489011971	0.0	0.8854432294633807	-0.620812527356928	0.0	0.9391068471394737	-0.830779721737613	0.0	0.897933733334491	-1.0133106269774685	0.0	0.9947327193885397	-1.0254011117134796	0.0	0.9849353318176708	-1.0137116558531212	0.0	0.8812658000175535	-1.0282886413429106	0.0	0.9602792415928335	-0.3323501493940192	0.0	1.0600668430189097	-0.2156373553044642	0.0	1.0482914220227701	-0.31476372479706993	0.0	0.9345745014470371	-0.3730716755989742	0.0	0.9667203445288718	-0.548153505397945	0.0	1.0503354090519395	-0.6867990464793255	0.0	0.9325814210476033	-0.36175842848309386	0.0	0.9601909093222315	-0.5284665608589074	0.0	1.0351477833288643	-0.6623099172447466	0.0
3	0.10096153846153846	0.8723663574827996	-0.6156671431190253	0.0	0.8713130748587418	-0.6185255252867838	0.0	0.9403680143733191	-0.8319236139805162	0.0	0.87636699571153	-1.036486255058649	0.0	0.9619596300496931	-1.051687900886463	0.0	0.9410926683049573	-1.0600565070749632	0.0	0.853156352003343	-1.059474383274995	0.0	0.8851724805765582	-0.6167473910460209	0.0	0.9408583570605688	-0.8239331154658045	0.0	0.8994427480187452	-1.0024921254883348	0.0	0.9933536484098482	-1.0152714909530296	0.0	0.9823150081072562	-1.0046238213226357	0.0	0.882396137842427	-1.0194838687913637	0.0	0.9608986812968326	-0.33431388122678235	0.0	1.0617457099686471	-0.22054404330565155	0.0	1.0478184044619925	-0.3194032760328545	0.0	0.9358834641453744	-0.37287551192354235	0.0	0.9740543480732132	-0.5429038237327692	0.0	1.0653830023368285	-0.6746462431337135	0.0	0.932942550342599	-0.36285974847487135	0.0	0.9699514709903192	-0.522916203846457	0.0	1.0537785626159613	-0.6504229871043954	0.0
4	0.1346153846153846	0.8698179741658099	-0.6121677886832918	0.0	0.8689358954575687	-0.6143927940037843	0.0	0.9372467537465725	-0.8250965595482365	0.0	0.8722672648408015	-1.0287599000860592	0.0	0.9609480750774798	-1.0472000865336006	0.0	0.9394397209084974	-1.0558133256074769	0.0	0.8488692087251731	-1.0534775391021258	0.0	0.8843318154210693	-0.612585264900296	0.0	0.9401790247965778	-0.817338801847218	0.0	0.8986981049765415	-0.993530943385857	0.0	0.9908608810884793	-1.0077030256670403	0.0	0.9788849275942062	-0.9989059819570476	0.0	0.8797393810955684	-1.0113908498922557	0.0	0.9605810683002868	-0.3351304774787085	0.0	1.0623203241964816	-0.22399468965379477	0.0	1.046161730870419	-0.32253454661585007	0.0	0.9360659022128434	-0.37155348346279354	0.0	0.980813160642341	-0.5365530843251897	0.0	1.0793238037473296	-0.6608708808530958	0.0	0.9323597513475246	-0.3633685534989188	0.0	0.9791222480872742	-0.517314022915152	0.0	1.0707648621971453	-0.6377030931240251	0.0
5	0.16826923076923075	0.8679729196031218	-0.6086137184677062	0.0	0.8669410587000758	-0.6099463292302738	0.0	0.934038194162607	-0.8183176485302955	0.0	0.8692911456507595	-1.0199696551779598	0.0	0.9608904714244503	-1.0424238618075823	0.0	0.9392437815106129	-1.0512965065026505	0.0	0.8458770608130124	-1.0462952660917553	0.0	0.8831847988402254	-0.608484758643152	0.0	0.9375890544523944	-0.8109116003467831	0.0	0.896391788011374	-0.9862544868455989	0.0	0.9875038371480108	-1.0022447086105677	0.0	0.9748157936656059	-0.9955002536188313	0.0	0.8744352692856269	-1.0040044246359932	0.0	0.9594786347831368	-0.33476407035307754	0.0	1.0615901882851375	-0.22588066935632498	0.0	1.043632155928997	-0.32389307119632843	0.0	0.9353202142166341	-0.3692714538604413	0.0	0.986953220648033	-0.5292976963595492	0.0	1.0916644129368482	-0.6458374725026185	0.0	0.9312415481168121	-0.3632210313552689	0.0	0.9873938466845587	-0.5116929131542935	0.0	1.0853767299072887	-0.6243495757262358	0.0
6	0.20192307692307693	0.8670751599602315	-0.6050881922161819	0.0	0.8656322429499732	-0.605528752948231	0.0	0.9305059966679233	-0.8118399837496485	0.0	0.867950022911069	-1.0108195743453667	0.0	0.961763327832351	-1.0373020272662425	0.0	0.9404000642671262	-1.0461994406619843	0.0	0.84462868788576	-1.0384561828395709	0.0	0.8821406985760148	-0.6046353251314317	0.0	0.9338184970771113	-0.8048523503940341	0.0	0.8935137439391435	-0.9804488497768138	0.0	0.9840464047456765	-0.9982350358531077	0.0	0.9707930655059924	-0.9932903996136554	0.0	0.8684427530225942	-0.9975714715403471	0.0	0.957957420054659	-0.3334358956448418	0.0	1.0596280205045983	-0.22625505575195412	0.0	1.0408217531896917	-0.3235361059203264	0.0	0.9340947461526412	-0.36653988583815333	0.0	0.9923923402081624	-0.5216624661169844	0.0	1.1019883670959352	-0.6304672477091376	0.0	0.930061870457909	-0.3624120574918323	0.0	0.9944414232815074	-0.5060493282611827	0.0	1.097042124090782	-0.6108030369367363	0.0
7	0.23557692307692307	0.8670860274288881	-0.6018353719665118	0.0	0.8651669079628582	-0.6015921399617605	0.0	0.9265087755846008	-0.8061990879900429	0.0	0.8682030999403176	-1.0026112396725857	0.0	0.9632246841262173	-1.032454262787909	0.0	0.942476878464453	-1.0410702941936218	0.0	0.8449841590948073	-1.0311997580256165	0.0	0.8814503599155028	-0.6012296727609653	0.0	0.929531636429099	-0.7995899357007161	0.0	0.8909671643512744	-0.9760372300569835	0.0	0.9812671128886693	-0.9951330859283118	0.0	0.9675372593097332	-0.9915736066728312	0.0	0.8634992092843664	-0.9924911214162513	0.0	0.9563631832628523	-0.3315541113691754	0.0	1.0568035776519407	-0.22538974764198239	0.0	1.0382819520742375	-0.3219228881588523	0.0	0.9329042558605545	-0.36398737800971864	0.0	0.9970747684174645	-0.5143510453958064	0.0	1.110084860465765	-0.6160375913897455	0.0	0.9289878869740767	-0.3610837047434601	0.0	0.9999579805589985	-0.5005313675366571	0.0	1.1056891740950046	-0.5977567965729711	0.0
8	0.2692307692307692	0.867781410542681	-0.59915679554598	0.0	0.8655700888154121	-0.5985034400826872	0.0	0.9221231315985461	-0.801863595195618	0.0	0.8695639121666001	-0.9965094565659575	0.0	0.9648582392509868	-1.028603899434942	0.0	0.9450054800910554	-1.0366967031614238	0.0	0.846492787439867	-1.0256831702261189	0.0	0.8810996690610102	-0.5984218242651552	0.0	0.9251688943610417	-0.7955041488723469	0.0	0.8892700934717257	-0.9730446410993925	0.0	0.9794933063844319	-0.99271705803904	0.0	0.9653482927379349	-0.9901394036130816	0.0	0.8603953603599004	-0.9890296596910091	0.0	0.9548905032064519	-0.3296136944604526	0.0	1.0537023866030624	-0.22380287037913113	0.0	1.0362504462765647	-0.31977487075903155	0.0	0.9321270448507682	-0.36205832360691453	0.0	1.0009899900688637	-0.5080501000417466	0.0	1.116038899831875	-0.6037800104083536	0.0	0.9278370206417267	-0.3595011597993745	0.0	1.0037341605964698	-0.4954901301729474	0.0	1.1117707663285654	-0.586102074428441	0.0
